<svg xmlns="http://www.w3.org/2000/svg" width="1644" height="604" viewBox="0 0 1644 604" font-family="Courier New, monospace"><defs><radialGradient id="sky" cx="55%" cy="35%" r="80%"><stop offset="0%" stop-color="#004a7a"/><stop offset="100%" stop-color="#001a33"/></radialGradient></defs><rect x="0" y="0" width="1644" height="604" fill="url(#sky)" /><circle cx="1240.90709750096" cy="499.58862831382567" r="1.2437467250853527" fill="#ffffff" opacity="0.5398192358982734"/><circle cx="84.70364526855975" cy="331.21823089344974" r="0.16155216138487455" fill="#ffffff" opacity="0.5699463700929679"/><circle cx="818.0327477025066" cy="149.06140628666813" r="0.5974008797488335" fill="#ffffff" opacity="0.4035491486453992"/><circle cx="119.17021879296153" cy="396.60525094985275" r="0.024880928863921882" fill="#ffffff" opacity="0.5536547494455146"/><circle cx="1403.8261786450012" cy="549.4975126448936" r="0.4036705873260054" fill="#ffffff" opacity="0.5652718708514526"/><circle cx="204.00053529370342" cy="366.7949874790896" r="0.6598375179832381" fill="#ffffff" opacity="0.6328886976649306"/><circle cx="228.57089017404047" cy="433.8449313884424" r="1.5473868160583313" fill="#ffffff" opacity="0.5416544754510353"/><circle cx="16.97743200558281" cy="5.926999616683345" r="1.3070153841531504" fill="#ffffff" opacity="0.3752784573783972"/><circle cx="615.9484809142654" cy="444.63445224068187" r="0.0343791768830549" fill="#ffffff" opacity="0.3374830602581686"/><circle cx="1258.0122506654338" cy="322.4416321570103" r="0.6303863879771229" fill="#ffffff" opacity="0.40815506738145263"/><circle cx="1309.3557512080363" cy="210.76235883984972" r="0.4814923999776344" fill="#ffffff" opacity="0.2511900816128176"/><circle cx="369.55049550789244" cy="215.8343888445759" r="1.5653636161366926" fill="#ffffff" opacity="0.3841654775828747"/><circle cx="1227.4810259454123" cy="552.077911885756" r="1.2213479203869195" fill="#ffffff" opacity="0.21040996232791292"/><circle cx="1270.135678939798" cy="559.6479677907088" r="1.4563434138666889" fill="#ffffff" opacity="0.4067751544364822"/><circle cx="333.19408882996015" cy="312.7511746200551" r="1.0577509152294333" fill="#ffffff" opacity="0.3432358261425354"/><circle cx="1568.6911451354617" cy="69.24605967886608" r="0.041689860609542606" fill="#ffffff" opacity="0.21138365970738188"/><circle cx="711.3003483670471" cy="191.05402200266965" r="0.7274284916740861" fill="#ffffff" opacity="0.4715363911377363"/><circle cx="1424.3547728780268" cy="232.61013931470072" r="1.4535969434594926" fill="#ffffff" opacity="0.3480831359116496"/><circle cx="617.787934675472" cy="346.93546060040444" r="0.3466577085188277" fill="#ffffff" opacity="0.2781328409192732"/><circle cx="573.5915887980523" cy="388.30834202209587" r="1.2939939877389355" fill="#ffffff" opacity="0.44418050576814244"/><circle cx="977.9412076074069" cy="92.28965623886326" r="1.543006951885969" fill="#ffffff" opacity="0.6312374622599433"/><circle cx="1449.0762204209752" cy="403.5430983137483" r="0.7440533143470216" fill="#ffffff" opacity="0.39379906338542764"/><circle cx="1076.592557567021" cy="143.7800281195231" r="0.09769488942183778" fill="#ffffff" opacity="0.3728278052014134"/><circle cx="453.2552765616232" cy="265.5811396415364" r="0.9446025141716134" fill="#ffffff" opacity="0.6151186466266096"/><circle cx="396.9563608384657" cy="211.21638599764125" r="1.4777400077482377" fill="#ffffff" opacity="0.5306785888812291"/><circle cx="538.0180339273327" cy="573.3016304908775" r="0.06061070601144572" fill="#ffffff" opacity="0.5086390135087462"/><circle cx="478.3722391504687" cy="98.25002514742154" r="1.4300383620652686" fill="#ffffff" opacity="0.3077954159943585"/><circle cx="1005.3880212479949" cy="101.01913087131231" r="0.46884193224242665" fill="#ffffff" opacity="0.36276056750780433"/><circle cx="1602.4819906357332" cy="555.4137276453246" r="1.5554803684372684" fill="#ffffff" opacity="0.5184857779641412"/><circle cx="442.90087595763464" cy="161.03559805439372" r="1.4180793541129213" fill="#ffffff" opacity="0.4533359022500563"/><circle cx="687.9608080643827" cy="171.45420250844137" r="1.1210856563071687" fill="#ffffff" opacity="0.22491879258619302"/><circle cx="1618.6745269264884" cy="242.37412583789848" r="0.7522790692080794" fill="#ffffff" opacity="0.3532493421268595"/><circle cx="795.6133026716161" cy="11.466469804588606" r="0.13374889669471132" fill="#ffffff" opacity="0.6298356058217149"/><circle cx="1407.0604990006166" cy="601.308476140664" r="1.5881690709683054" fill="#ffffff" opacity="0.538387708530452"/><circle cx="349.85017936448384" cy="413.8628162676759" r="1.067619934500003" fill="#ffffff" opacity="0.2750241362996772"/><circle cx="712.8477013585305" cy="495.0966124993084" r="0.7030477156275332" fill="#ffffff" opacity="0.40422671950245054"/><circle cx="1555.4656598461427" cy="16.421462799233932" r="0.4543996307743314" fill="#ffffff" opacity="0.43392702488178775"/><circle cx="1512.0761768278999" cy="308.95572941258865" r="1.4936369951722381" fill="#ffffff" opacity="0.32701667403009266"/><circle cx="829.009263173474" cy="410.8035220572172" r="1.5564803764328703" fill="#ffffff" opacity="0.4201718780402776"/><circle cx="229.719935736639" cy="48.2942690350084" r="0.5948887650500957" fill="#ffffff" opacity="0.6921680504156871"/><circle cx="1037.7129175462057" cy="15.515897675313624" r="1.3064534113178734" fill="#ffffff" opacity="0.34070896049153904"/><circle cx="999.1079769892328" cy="136.26297247113794" r="1.5090807580604668" fill="#ffffff" opacity="0.2628327672829441"/><circle cx="1244.729811936921" cy="554.2701699901157" r="1.033154975208669" fill="#ffffff" opacity="0.5871480546897738"/><circle cx="1512.2125207992397" cy="354.9711463047248" r="1.5307597233977028" fill="#ffffff" opacity="0.6110255057255416"/><circle cx="1576.9526352341888" cy="406.5101706535081" r="0.07037531325532705" fill="#ffffff" opacity="0.4216086291008338"/><circle cx="1336.5021058049063" cy="255.08681497175635" r="0.013948773019929563" fill="#ffffff" opacity="0.41636587401838604"/><circle cx="1444.4708361073226" cy="360.65756251417554" r="0.048450946767842853" fill="#ffffff" opacity="0.5506658777097975"/><circle cx="1343.1193203215703" cy="247.89623972241534" r="1.067168631064703" fill="#ffffff" opacity="0.6958167817580718"/><circle cx="1055.8696733562822" cy="586.1642562919474" r="1.590515639171688" fill="#ffffff" opacity="0.5089642283119149"/><circle cx="944.3166406322066" cy="594.5036714318624" r="0.021633228299635834" fill="#ffffff" opacity="0.6732570673233789"/><circle cx="729.336604867279" cy="212.80354668770593" r="0.09414084308049518" fill="#ffffff" opacity="0.5792841190154812"/><circle cx="42.176243313878174" cy="274.29438606831513" r="1.131528621806547" fill="#ffffff" opacity="0.39530347797627147"/><circle cx="958.9887762851845" cy="23.450273551001498" r="0.4294824302759878" fill="#ffffff" opacity="0.4066218938103144"/><circle cx="847.2196332254969" cy="264.319741683831" r="1.089539406987674" fill="#ffffff" opacity="0.6161870505795897"/><circle cx="1618.3998146923732" cy="398.91794515423703" r="0.6800817919912885" fill="#ffffff" opacity="0.42441415282608147"/><circle cx="1358.2596446367177" cy="294.6065668036857" r="1.5072725999785366" fill="#ffffff" opacity="0.2174078059187678"/><circle cx="1530.9459738544874" cy="535.8279749390628" r="0.7889983082291366" fill="#ffffff" opacity="0.4120626535520014"/><circle cx="720.5886193803808" cy="480.3850254812354" r="1.321559221196507" fill="#ffffff" opacity="0.2662238134539993"/><circle cx="208.65759639490918" cy="190.73383327992062" r="1.4394828013946654" fill="#ffffff" opacity="0.6659800138495109"/><circle cx="858.1954717724722" cy="30.645263300879247" r="1.2909512101291505" fill="#ffffff" opacity="0.34807018864665035"/><circle cx="1013.3432023015495" cy="55.95435202245382" r="0.03689852923720949" fill="#ffffff" opacity="0.5508243937532673"/><circle cx="372.13255808492914" cy="293.1745177326722" r="1.265465652784464" fill="#ffffff" opacity="0.46241500311883116"/><circle cx="818.1372720270039" cy="207.5284219242833" r="0.5180018383625743" fill="#ffffff" opacity="0.640225952408209"/><circle cx="134.92927138869678" cy="550.5924359517785" r="0.30338645937473496" fill="#ffffff" opacity="0.49863353101403957"/><circle cx="288.4190739448784" cy="62.24037308049326" r="1.0970027156555957" fill="#ffffff" opacity="0.5829319146275846"/><circle cx="1007.839860592705" cy="519.1195633103272" r="1.074674590691569" fill="#ffffff" opacity="0.3082589180669783"/><circle cx="1121.7719405093071" cy="358.35499493335664" r="1.3336934895508095" fill="#ffffff" opacity="0.4795190097782451"/><circle cx="1122.7927536180982" cy="414.1744679963685" r="0.7673741307875446" fill="#ffffff" opacity="0.5916419217801256"/><circle cx="1251.8064578285478" cy="287.2776287091431" r="1.2135439820754947" fill="#ffffff" opacity="0.6943916366400291"/><circle cx="814.0857871303117" cy="91.91306799094198" r="1.101834088923147" fill="#ffffff" opacity="0.6679186030230551"/><circle cx="677.9413619786374" cy="430.5556381247066" r="0.07023235918357465" fill="#ffffff" opacity="0.5907990132780181"/><circle cx="209.16402177615328" cy="5.821677009393904" r="1.5836808916360139" fill="#ffffff" opacity="0.6061239475806806"/><circle cx="198.4239775180225" cy="348.85616370436674" r="1.1640886720057555" fill="#ffffff" opacity="0.436556429533176"/><circle cx="162.50194315984893" cy="215.50344839890923" r="1.0266023444789547" fill="#ffffff" opacity="0.5867370619167844"/><circle cx="317.82075054429777" cy="545.3904741470585" r="1.2904165447754126" fill="#ffffff" opacity="0.6673749073590904"/><circle cx="1606.5569990857673" cy="58.849590303357076" r="0.40909741199231464" fill="#ffffff" opacity="0.5895779622136454"/><circle cx="1278.1871750008293" cy="42.88154497588539" r="0.5609261606659534" fill="#ffffff" opacity="0.5684697130769658"/><circle cx="530.5875724117374" cy="404.3736233207313" r="0.5218068439560327" fill="#ffffff" opacity="0.4404446310876223"/><circle cx="663.4970618162971" cy="564.2713702019487" r="0.7219398468582601" fill="#ffffff" opacity="0.5333589560403431"/><circle cx="952.6625210531714" cy="46.9689133711541" r="0.2374369876861504" fill="#ffffff" opacity="0.6714518653846495"/><circle cx="632.7178823261784" cy="82.8339273454768" r="0.9692294795495795" fill="#ffffff" opacity="0.553312435775823"/><circle cx="686.5695919880969" cy="126.41779516463572" r="0.5409275129023737" fill="#ffffff" opacity="0.6973720083356787"/><circle cx="66.54888145179345" cy="153.40975587266303" r="0.12433535511799079" fill="#ffffff" opacity="0.5047349934710197"/><circle cx="401.54507723125363" cy="213.0764445094548" r="0.36742884964251454" fill="#ffffff" opacity="0.594990245515616"/><circle cx="1041.7436971210732" cy="39.29690534091682" r="1.4083464292971417" fill="#ffffff" opacity="0.321285248529062"/><circle cx="658.8843604797081" cy="138.76206588279803" r="1.1619699281752482" fill="#ffffff" opacity="0.5809211403588088"/><circle cx="976.8152195946602" cy="384.07036227055386" r="0.7773016501603703" fill="#ffffff" opacity="0.4684698905524545"/><circle cx="970.0783059896198" cy="551.2100621193582" r="0.3651529824433599" fill="#ffffff" opacity="0.6011464190405671"/><circle cx="455.9485576980099" cy="371.1453616430572" r="1.3447040651638493" fill="#ffffff" opacity="0.2629192242333967"/><circle cx="732.3503898147312" cy="492.8877883837113" r="0.335913198681719" fill="#ffffff" opacity="0.27874153857872935"/><circle cx="521.1655527459006" cy="22.240208207655698" r="0.40995332737550605" fill="#ffffff" opacity="0.36058159498558146"/><circle cx="1339.4976803777124" cy="5.933826721430242" r="0.10788398037027527" fill="#ffffff" opacity="0.606360254578661"/><circle cx="1121.8058922931953" cy="289.8490904033288" r="1.04980973270333" fill="#ffffff" opacity="0.43737565536476203"/><circle cx="1433.0115791001606" cy="221.2273341695721" r="0.344394628694749" fill="#ffffff" opacity="0.4319296664561952"/><circle cx="1356.8167943104788" cy="356.0289674533619" r="1.4898160308581383" fill="#ffffff" opacity="0.41493852667197"/><circle cx="245.04890598071597" cy="40.88969028243659" r="1.3148185529828826" fill="#ffffff" opacity="0.6334560704662953"/><circle cx="1359.9421448478488" cy="260.9192676854954" r="0.7677959021480576" fill="#ffffff" opacity="0.690999158277442"/><circle cx="463.0640243301636" cy="559.4081414613364" r="1.2722601760564576" fill="#ffffff" opacity="0.6000394889804355"/><circle cx="1060.8865054933942" cy="165.4229604301951" r="1.5608841140397165" fill="#ffffff" opacity="0.512683351273761"/><circle cx="403.74470097345784" cy="189.89496848013158" r="0.17517098385663915" fill="#ffffff" opacity="0.5996380867668003"/><circle cx="704.7303299656213" cy="503.7004500698871" r="0.5546832803624533" fill="#ffffff" opacity="0.2562008360910963"/><circle cx="1619.5769085319712" cy="534.0244577195838" r="1.2292506894420487" fill="#ffffff" opacity="0.5249923886287575"/><circle cx="1487.9499899293294" cy="448.78440281276403" r="1.2502183091274812" fill="#ffffff" opacity="0.5375598701922806"/><circle cx="930.7195439554354" cy="251.54311089733324" r="1.4484228356266424" fill="#ffffff" opacity="0.43954683345029016"/><circle cx="85.39176355912679" cy="381.25448203951896" r="0.7867574343300181" fill="#ffffff" opacity="0.311038380459497"/><circle cx="370.08494379615735" cy="494.2076142880259" r="0.3281829568265803" fill="#ffffff" opacity="0.5849247174529135"/><circle cx="1169.9981451189287" cy="198.97132933866976" r="0.43037617707680803" fill="#ffffff" opacity="0.6432317582890898"/><circle cx="221.4252459457751" cy="135.42918893432838" r="0.145619401570859" fill="#ffffff" opacity="0.2619034882655235"/><circle cx="1085.5948887001614" cy="340.3255261032188" r="0.6850664769586399" fill="#ffffff" opacity="0.4570980484597556"/><circle cx="421.2528319373043" cy="223.34561841715356" r="1.2073899970381299" fill="#ffffff" opacity="0.20052873039572278"/><circle cx="1304.5376336615236" cy="527.561382474543" r="0.21388363130768334" fill="#ffffff" opacity="0.4674486314190163"/><circle cx="1326.5025611413707" cy="349.64160635679355" r="0.06659609086912824" fill="#ffffff" opacity="0.388256561514115"/><circle cx="926.0514998043438" cy="203.98525285758157" r="0.9375191332957133" fill="#ffffff" opacity="0.6746447921362444"/><circle cx="529.6810665603197" cy="286.7930798359214" r="0.09469874263782502" fill="#ffffff" opacity="0.4921969227480098"/><circle cx="1037.7735166357782" cy="357.0381127978311" r="0.3476802836484744" fill="#ffffff" opacity="0.5326627636867951"/><circle cx="1146.0250603206973" cy="536.6611839501129" r="0.5209587114718609" fill="#ffffff" opacity="0.514752880724803"/><circle cx="65.6705465870741" cy="394.7391582589903" r="1.4629486615926979" fill="#ffffff" opacity="0.49014634197190793"/><circle cx="567.8879568711883" cy="108.64946978086226" r="0.6708633640442319" fill="#ffffff" opacity="0.455467520931016"/><circle cx="413.0534132009161" cy="351.3428444841432" r="0.8112227122874534" fill="#ffffff" opacity="0.35055008796354487"/><circle cx="1298.8169727522522" cy="22.908471166369793" r="0.3656522699033204" fill="#ffffff" opacity="0.5662530502052889"/><circle cx="1126.0341121545157" cy="188.0132250321409" r="1.3174610511770302" fill="#ffffff" opacity="0.2930752574613337"/><circle cx="1132.94302113957" cy="369.466547949229" r="0.03953727083397283" fill="#ffffff" opacity="0.4807073643084802"/><circle cx="301.43942846525226" cy="160.17727503817704" r="1.456126122111449" fill="#ffffff" opacity="0.34981519609674155"/><circle cx="216.8373534284079" cy="120.365088801882" r="1.3315496025948654" fill="#ffffff" opacity="0.3033350720248394"/><circle cx="18.9085271726129" cy="51.5069346986606" r="0.06947538571205492" fill="#ffffff" opacity="0.3374175158730525"/><circle cx="827.566971349228" cy="289.71118548722154" r="0.6836131270735092" fill="#ffffff" opacity="0.5076888048410515"/><circle cx="1614.0566057497642" cy="591.1306930593063" r="1.1435382300366719" fill="#ffffff" opacity="0.20167985554523699"/><circle cx="604.6482827893491" cy="244.43862478576474" r="1.4334386563985941" fill="#ffffff" opacity="0.5241494389270971"/><circle cx="83.49501739437922" cy="272.79235573555144" r="0.7744878809594689" fill="#ffffff" opacity="0.2442513299328824"/><circle cx="630.0900538813275" cy="602.8817697079115" r="0.7611617835763603" fill="#ffffff" opacity="0.5779801297435889"/><circle cx="626.6840752384358" cy="497.828589380421" r="0.8861580367102342" fill="#ffffff" opacity="0.2447778869748109"/><circle cx="902.6544408799525" cy="530.6133772240457" r="0.04509457004417072" fill="#ffffff" opacity="0.6651638888716216"/><circle cx="1272.0916235669256" cy="556.0069775323328" r="0.0599323542091625" fill="#ffffff" opacity="0.3378580715203598"/><circle cx="738.7802440574734" cy="390.1439520785732" r="0.7269566789303451" fill="#ffffff" opacity="0.5704843178236179"/><circle cx="613.429891328088" cy="295.7078261413495" r="0.9042004961426529" fill="#ffffff" opacity="0.5917841402424742"/><circle cx="644.7625283784606" cy="160.98031964957295" r="0.06620410293084832" fill="#ffffff" opacity="0.4501328472827257"/><circle cx="756.1926349807155" cy="467.6437209179408" r="0.541741732768919" fill="#ffffff" opacity="0.4688058673465923"/><circle cx="1001.3079040621269" cy="282.4011164432893" r="0.1903501407661402" fill="#ffffff" opacity="0.4371994891944237"/><circle cx="114.56514155935646" cy="142.9821232280376" r="0.02133563618709431" fill="#ffffff" opacity="0.6370326325745381"/><circle cx="63.813626478595964" cy="296.555873977342" r="0.25135085315555944" fill="#ffffff" opacity="0.44372429617447523"/><text x="24" y="64" fill="#bdefff" font-size="38" font-weight="bold" letter-spacing="2">WORLD II · CRYO EXPANSE</text><text x="24" y="96" fill="#9fb6d6" font-size="18">Frozen rings &amp; glacial wrecks</text><line x1="24" y1="116" x2="1620" y2="116" stroke="#1f6fa8" stroke-width="2" stroke-linecap="round"/><rect x="24" y="150" width="300" height="430" fill="rgba(10,12,28,0.55)" rx="14" stroke="rgba(150,170,220,0.25)" stroke-width="1.5"/><text x="174" y="176" fill="#7f97b8" font-size="12" text-anchor="middle">LEVEL 6</text><circle cx="174" cy="320" r="118" fill="#5ac8ff" opacity="0.06"/><line x1="174" y1="290" x2="96" y2="272" stroke="#1f6fa8" stroke-width="5" stroke-linecap="round"/><line x1="174" y1="290" x2="252" y2="272" stroke="#1f6fa8" stroke-width="5" stroke-linecap="round"/><line x1="174" y1="310" x2="96" y2="304" stroke="#1f6fa8" stroke-width="5" stroke-linecap="round"/><line x1="174" y1="310" x2="252" y2="304" stroke="#1f6fa8" stroke-width="5" stroke-linecap="round"/><line x1="174" y1="330" x2="96" y2="336" stroke="#1f6fa8" stroke-width="5" stroke-linecap="round"/><line x1="174" y1="330" x2="252" y2="336" stroke="#1f6fa8" stroke-width="5" stroke-linecap="round"/><line x1="174" y1="350" x2="96" y2="368" stroke="#1f6fa8" stroke-width="5" stroke-linecap="round"/><line x1="174" y1="350" x2="252" y2="368" stroke="#1f6fa8" stroke-width="5" stroke-linecap="round"/><ellipse cx="174" cy="320" rx="40" ry="52" fill="#5ac8ff" /><circle cx="174" cy="276" r="30" fill="#5ac8ff" /><circle cx="162" cy="272" r="8" fill="#06354a" /><circle cx="186" cy="272" r="8" fill="#06354a" /><polygon points="174,300 179.65685424949237,314.34314575050763 194,320 179.65685424949237,325.65685424949237 174,340 168.34314575050763,325.65685424949237 154,320 168.34314575050763,314.34314575050763" fill="#bdefff" /><text x="174" y="450" fill="#eaf3ff" font-size="16" font-weight="bold" text-anchor="middle">Frost Weaver</text><text x="174" y="476" fill="#a9c2e0" font-size="12.5" text-anchor="middle">Drops icicle volleys and</text><text x="174" y="494" fill="#a9c2e0" font-size="12.5" text-anchor="middle">slowing web-fields from above.</text><rect x="348" y="150" width="300" height="430" fill="rgba(10,12,28,0.55)" rx="14" stroke="rgba(150,170,220,0.25)" stroke-width="1.5"/><text x="498" y="176" fill="#7f97b8" font-size="12" text-anchor="middle">LEVEL 7</text><circle cx="498" cy="320" r="118" fill="#5ac8ff" opacity="0.06"/><circle cx="558" cy="320" r="30" fill="#1f6fa8" /><circle cx="536" cy="342.0535747757933" r="28.4" fill="#5ac8ff" /><circle cx="514" cy="358.7076653011632" r="26.8" fill="#1f6fa8" /><circle cx="492" cy="365.88476938378653" r="25.2" fill="#5ac8ff" /><circle cx="470" cy="361.82768163398134" r="23.6" fill="#1f6fa8" /><circle cx="448" cy="347.529718628782" r="22" fill="#5ac8ff" /><circle cx="426" cy="326.4915203707539" r="20.4" fill="#1f6fa8" /><circle cx="404" cy="303.8639715262775" r="18.799999999999997" fill="#5ac8ff" /><ellipse cx="574" cy="320" rx="40" ry="30" fill="#5ac8ff" /><polygon points="604,302 632,314 604,322" fill="#bdefff" /><circle cx="582" cy="312" r="9" fill="#06354a" /><circle cx="582" cy="330" r="9" fill="#06354a" /><text x="498" y="450" fill="#eaf3ff" font-size="16" font-weight="bold" text-anchor="middle">Glacier Wyrm</text><text x="498" y="476" fill="#a9c2e0" font-size="12.5" text-anchor="middle">Segmented serpent — only the</text><text x="498" y="494" fill="#a9c2e0" font-size="12.5" text-anchor="middle">head takes real damage.</text><rect x="672" y="150" width="300" height="430" fill="rgba(10,12,28,0.55)" rx="14" stroke="rgba(150,170,220,0.25)" stroke-width="1.5"/><text x="822" y="176" fill="#7f97b8" font-size="12" text-anchor="middle">LEVEL 8</text><circle cx="822" cy="320" r="118" fill="#5ac8ff" opacity="0.06"/><ellipse cx="822" cy="360" rx="46" ry="14" fill="#bdefff" opacity="0.7"/><ellipse cx="822" cy="374" rx="39" ry="14" fill="#bdefff" opacity="0.58"/><ellipse cx="822" cy="388" rx="32" ry="14" fill="#bdefff" opacity="0.45999999999999996"/><ellipse cx="822" cy="402" rx="25" ry="14" fill="#bdefff" opacity="0.33999999999999997"/><ellipse cx="822" cy="416" rx="18" ry="14" fill="#bdefff" opacity="0.21999999999999997"/><circle cx="822" cy="310" r="46" fill="#5ac8ff" /><polygon points="776,310 752,274 792,290" fill="#1f6fa8" /><polygon points="868,310 892,274 852,290" fill="#1f6fa8" /><circle cx="806" cy="304" r="9" fill="#06354a" /><circle cx="838" cy="304" r="9" fill="#06354a" /><polygon points="822,248 827.2900672706322,262.71884705062547 842.9232433584933,263.20162612375117 830.5595086466564,272.78115294937453 834.9312755504344,287.79837387624883 822,279 809.0687244495656,287.79837387624883 813.4404913533436,272.78115294937453 801.0767566415066,263.20162612375117 816.7099327293678,262.71884705062547" fill="#e8fbff" /><text x="822" y="450" fill="#eaf3ff" font-size="16" font-weight="bold" text-anchor="middle">Hailstorm Djinn</text><text x="822" y="476" fill="#a9c2e0" font-size="12.5" text-anchor="middle">Calls hail columns that rain</text><text x="822" y="494" fill="#a9c2e0" font-size="12.5" text-anchor="middle">down across the screen.</text><rect x="996" y="150" width="300" height="430" fill="rgba(10,12,28,0.55)" rx="14" stroke="rgba(150,170,220,0.25)" stroke-width="1.5"/><text x="1146" y="176" fill="#7f97b8" font-size="12" text-anchor="middle">LEVEL 9</text><circle cx="1146" cy="320" r="118" fill="#5ac8ff" opacity="0.06"/><polygon points="1146,234 1206,294 1206,360 1146,406 1086,360 1086,294" fill="#5ac8ff" /><polygon points="1146,250 1192,302 1192,350 1146,390 1100,350 1100,302" fill="#e8fbff" opacity="0.55"/><line x1="1146" y1="250" x2="1146" y2="390" stroke="#bdefff" stroke-width="3" stroke-linecap="round"/><circle cx="1146" cy="320" r="18" fill="#06354a" /><text x="1146" y="450" fill="#eaf3ff" font-size="16" font-weight="bold" text-anchor="middle">Mirror Sentinel</text><text x="1146" y="476" fill="#a9c2e0" font-size="12.5" text-anchor="middle">Front facet reflects your</text><text x="1146" y="494" fill="#a9c2e0" font-size="12.5" text-anchor="middle">shots — flank it to hit the</text><text x="1146" y="512" fill="#a9c2e0" font-size="12.5" text-anchor="middle">core.</text><rect x="1320" y="150" width="300" height="430" fill="rgba(10,12,28,0.55)" rx="14" stroke="#bdefff" stroke-width="3"/><text x="1470" y="176" fill="#bdefff" font-size="13" font-weight="bold" text-anchor="middle">★ WORLD BOSS ★</text><circle cx="1470" cy="320" r="118" fill="#5ac8ff" opacity="0.06"/><rect x="1420" y="270" width="100" height="100" fill="#5ac8ff" /><polygon points="1410,270 1424,242 1438,270" fill="#e8fbff" /><polygon points="1440,270 1454,242 1468,270" fill="#e8fbff" /><polygon points="1470,270 1484,242 1498,270" fill="#e8fbff" /><polygon points="1500,270 1514,242 1528,270" fill="#e8fbff" /><polygon points="1530,270 1544,242 1558,270" fill="#e8fbff" /><rect x="1436" y="290" width="68" height="40" fill="#1f6fa8" /><circle cx="1452" cy="310" r="10" fill="#06354a" /><circle cx="1488" cy="310" r="10" fill="#06354a" /><polygon points="1470,334 1475.5,350.47372055837116 1492.5166604983954,347 1481,360 1492.5166604983954,373 1475.5,369.52627944162884 1470,386 1464.5,369.52627944162884 1447.4833395016046,373 1459,360 1447.4833395016046,347 1464.5,350.47372055837116" fill="#bdefff" /><text x="1470" y="450" fill="#eaf3ff" font-size="16" font-weight="bold" text-anchor="middle">ABSOLUTE ZERO</text><text x="1470" y="476" fill="#a9c2e0" font-size="12.5" text-anchor="middle">World boss: flash-freezes your</text><text x="1470" y="494" fill="#a9c2e0" font-size="12.5" text-anchor="middle">engines, then heavy ice</text><text x="1470" y="512" fill="#a9c2e0" font-size="12.5" text-anchor="middle">barrages.</text></svg>